<svg width="28" height="28" viewBox="0 0 28 28" fill="none" xmlns="http://www.w3.org/2000/svg">
<g id="icon_profile">
<path id="Subtract" fill-rule="evenodd" clip-rule="evenodd" d="M28 14C28 21.732 21.732 28 14 28C6.26801 28 0 21.732 0 14C0 6.26801 6.26801 0 14 0C21.732 0 28 6.26801 28 14ZM18.6667 7.66667C18.6667 10.244 16.5774 12.3333 14 12.3333C11.4227 12.3333 9.33337 10.244 9.33337 7.66667C9.33337 5.08934 11.4227 3 14 3C16.5774 3 18.6667 5.08934 18.6667 7.66667ZM19.4997 16.167C20.9584 17.6256 21.7778 19.6039 21.7778 21.6667H14H6.22224C6.22224 19.6039 7.04168 17.6256 8.5003 16.1669C9.95892 14.7083 11.9372 13.8889 14 13.8889C16.0628 13.8889 18.0411 14.7083 19.4997 16.167Z" fill="white"/>
</g>
</svg>
